<svg xmlns="http://www.w3.org/2000/svg" width="307" height="139" viewBox="0 0 307 139"><defs><style>.a{fill:#fafafa;}.b{fill:#c00039;}</style></defs><g transform="translate(-534 -223)"><g transform="translate(534 223)"><rect class="a" width="307" height="139" rx="16"/></g><g transform="translate(643.999 252)"><path class="b" d="M403.02,70.045a5.848,5.848,0,0,0-6.748,6.118l-.467-.1a3.243,3.243,0,0,0-3.394,1.419l-.656,1.02,7.418,1.557a3.237,3.237,0,0,0,3.392-1.423l.651-1.018-3.149-.661a2.334,2.334,0,0,1-.2-1.813,2.362,2.362,0,0,1,2.543-1.647l.04.006a3.62,3.62,0,0,0,3.607-1.619l.152-.24A5.828,5.828,0,0,0,403.02,70.045Z" transform="translate(-319.392 -69.421)"/><path class="b" d="M134.814,124.828a4.278,4.278,0,0,1-.511.538l-.008.007,0,0h0a4.589,4.589,0,0,1-.8.574,7.055,7.055,0,0,1-1.384.561l-.036.013-.142.049-.2.049q-.194.053-.387.12c-.272.058-.538.142-.823.223s-.579.169-.881.267a5.345,5.345,0,0,0-.944.378,4.168,4.168,0,0,0,.912.5,5.277,5.277,0,0,0,.979.263,3.176,3.176,0,0,0,.507.045c.174.009.347.009.516,0,.178-.022.352-.044.525-.076l.214-.04.045-.009.263-.08a3.773,3.773,0,0,0,.507-.2c.169-.085.334-.178.489-.272.156-.115.3-.236.445-.36a5.725,5.725,0,0,0,.378-.432l.053-.08h0a.092.092,0,0,1,0-.008h0v0a2.562,2.562,0,0,0,.387-.952A1.76,1.76,0,0,0,134.814,124.828Z" transform="translate(-112.965 -111.932)"/><path class="b" d="M138.532,147.235a4.866,4.866,0,0,1-.541.573h0l-.008.007h0a4.71,4.71,0,0,1-.77.543,6.835,6.835,0,0,1-1.379.556l-.076.026-.107.04-.2.049c-.129.035-.258.071-.387.116-.272.058-.538.147-.823.227s-.579.169-.881.267a5.023,5.023,0,0,0-.943.378,4.574,4.574,0,0,0,.912.5,5.65,5.65,0,0,0,.979.263,3.226,3.226,0,0,0,.507.04,4.986,4.986,0,0,0,.516,0c.178-.018.352-.044.525-.071l.178-.036.08-.013.263-.085a4.8,4.8,0,0,0,.512-.2c.165-.089.329-.178.485-.276s.3-.236.445-.361a4.941,4.941,0,0,0,.378-.432c.009-.013.013-.022.022-.036v0a.1.1,0,0,1,.011-.019,2.538,2.538,0,0,0,.412-.992A1.765,1.765,0,0,0,138.532,147.235Z" transform="translate(-115.878 -129.96)"/><path class="b" d="M122.792,114.356l14.987-34.287L135,79.487a8.79,8.79,0,0,0-9.826,5.064l-9.829,22.486a4.625,4.625,0,0,0-4.537-.791c-1.015-.245-3.426-1.1-3.533-3.607a23.464,23.464,0,0,0-1.632-7.5c-.694-1.864.077-5.54,2.656-6.658a7.883,7.883,0,0,1,7.491.883c1.889,1.371,2.536,1.277,3.662,1.114l2.887-6.268-1.893-.4c.03-.141.06-.279.094-.416l1.761-5.925c.158-.527.745-2.528.745-2.528s-2.356.553-2.587.613c-1.863.484-3.486.857-3.5.861-.42.094-1.619.433-1.619.433s.377,1.144.518,1.555a8.777,8.777,0,0,1,.39,4.524l-5.23-1.1a8.339,8.339,0,0,0-6.827,2.232,8.886,8.886,0,0,0-1.756,2.168,5.084,5.084,0,0,0-1.97-.865,5.215,5.215,0,0,0-4.309,1.007,6.206,6.206,0,0,0-3.465-2.065,6.14,6.14,0,0,0-2.4-.03,4.575,4.575,0,0,1-.672-2.6A6.8,6.8,0,0,1,91.9,76.745a5.1,5.1,0,0,1,4.364-1.058A3.3,3.3,0,0,1,98.5,77.55a1.991,1.991,0,0,1-.535,2.348,2.027,2.027,0,0,1-2.193.467,1.617,1.617,0,0,1-.921-1.063.925.925,0,0,1,.107-.638l-1.563-.72a2.743,2.743,0,0,0-.257,1.487,3.187,3.187,0,0,0,1.808,2.434,3.86,3.86,0,0,0,5.135-4.978,4.985,4.985,0,0,0-3.371-2.858A5.916,5.916,0,0,0,94.5,73.87a4.6,4.6,0,0,0,.309-3.381,4.271,4.271,0,0,0-3.115-2.874l-.013,0a3.859,3.859,0,0,0-3.491.893,3.339,3.339,0,0,0-1.041,2.908,3.064,3.064,0,0,0,2.074,2.515,2.379,2.379,0,0,0,2.467-.522,1.941,1.941,0,0,0-.094-2.774l-1.216,1.213c.082.082.2.24.076.37a.712.712,0,0,1-.707.08,1.337,1.337,0,0,1-.9-1.127,1.6,1.6,0,0,1,.515-1.409,2.2,2.2,0,0,1,1.975-.465A2.605,2.605,0,0,1,93.172,71c.351,1.118-.107,2.4-1.325,3.7a.488.488,0,0,0-.049.06h0a8.354,8.354,0,0,0-.934.613,7.72,7.72,0,0,0-2.36,3.337v0a4.376,4.376,0,0,0-3.539-1.331A4.037,4.037,0,0,0,81.086,81.5a3.47,3.47,0,0,0,2.7,3.386c.044.009.089.018.133.025a2.42,2.42,0,0,0,2.8-1.656,1.891,1.891,0,0,0-1.11-2.5L84.8,82.078s.551.234.377.736c-.14.4-.526.469-.979.4A1.723,1.723,0,0,1,82.814,81.5,2.333,2.333,0,0,1,85.1,79.111a2.537,2.537,0,0,1,2.8,2.263c0,.016.008.031.012.046v.012c0,.073-.008.141-.008.214,0,.051,0,.1,0,.154a6.291,6.291,0,0,0,.724,3.037,6.264,6.264,0,0,0-2.386,2.116,5.35,5.35,0,0,0-.647-.18,5.97,5.97,0,0,0-5.941,2.193,5.82,5.82,0,0,0-.78,1.333,1.394,1.394,0,0,1-.136.122h0l0,0-.006.007-.006.006h0v0a4.55,4.55,0,0,1-.724.505,6.723,6.723,0,0,1-1.328.54l-.1.034-.077.026-.189.047q-.186.051-.373.116c-.261.055-.518.141-.792.214s-.552.167-.848.257a5.5,5.5,0,0,0-.908.364,4.215,4.215,0,0,0,.878.488,5.454,5.454,0,0,0,.942.249,2.708,2.708,0,0,0,.492.043,4.869,4.869,0,0,0,.5,0c.167-.017.334-.043.5-.073l.15-.026.1-.017.248-.081a3.964,3.964,0,0,0,.492-.189c.159-.086.317-.171.467-.266.09-.064.176-.133.257-.2a5.927,5.927,0,0,0,1.225,3.761l.03.184.034.214a5.166,5.166,0,0,0-.24.831,5.786,5.786,0,0,0,1.126,4.785l.15.938-.008,0-2.386-.5-2.519-.527-4.849-1.015-.257-.056-.45-.094-1.225-7.729.034-.017-.141-.672-.176-1.11-.013-.013v0l-2.2-13.864a3.572,3.572,0,0,1,.021-1.281.9.9,0,0,1,.017-.1,5,5,0,0,1,9.787-.454,6.037,6.037,0,0,0-2.4-3.736,6.147,6.147,0,0,0-9.689,5.934l2.167,13.663.094.613L56.051,98.2,56,128.293a8.791,8.791,0,0,0,6.947,8.577L90.4,142.633l.06.013c.021-.128.043-.253.068-.377a7.325,7.325,0,0,1,8.661-5.66,7.314,7.314,0,0,1,5.688,8.5v.009a8.731,8.731,0,0,0,6.72-5.15l9.012-20.607-8.913-1.872-.835-.176-5.7,13.033a6.483,6.483,0,0,1-7.243,3.736L71.158,128.46l-.026,0-.24-.052a5.657,5.657,0,0,1-.668-.18s-.009,0-.013,0a6.461,6.461,0,0,1-4.45-6.148l.009-4.1.013,0v-1.508l0-.831v-7.793l0-2.721v-2.81l2.437.518v0l2.394.51h.013l.326.069v16.173a4.673,4.673,0,0,0,3.684,4.143l21.716,4.559a4.662,4.662,0,0,0,5.217-2.691l4.1-9.378-9.749-2.048-1.563,3.569-11.783-2.476a2.375,2.375,0,0,1-1.88-2.318l.013-7.425,7.958,1.671.715.15s.009,0,.013,0c.133.034.27.068.407.1s.27.051.407.073h.017l2.416.51a1.8,1.8,0,0,0,.09.189,6.48,6.48,0,0,0,9.744,2.044,1.221,1.221,0,0,0,.116-.094.445.445,0,0,0,.047-.039l11.231,2.356,1.448.3,11.95-27.325a6.5,6.5,0,0,1,7.26-3.744l.021.008-14.049,32.145ZM117.734,83.24A10.225,10.225,0,0,0,117.3,77.9s1.636-.373,3.546-.87l-1.769,5.955s-.052.2-.112.51a5.066,5.066,0,0,0,.249,3.286s-1.247.788-1.388,1.465a7,7,0,0,0-1.418-1.649A8.807,8.807,0,0,0,117.734,83.24ZM79.7,96.62l-.056-.364c.043.056.09.111.137.167C79.75,96.487,79.725,96.551,79.7,96.62Zm20.375-9.391a3.287,3.287,0,0,1,1.538.78,11.082,11.082,0,0,0-.647,3.513l.188,1.512a5.746,5.746,0,0,0-2.476-1.187c-.077-.017-.15-.03-.227-.043a5.545,5.545,0,0,0-.955-.081h-.008l.013-.052c.03-.141.056-.287.073-.433a6.158,6.158,0,0,0-.415-3.222A3.321,3.321,0,0,1,100.074,87.228Zm-4.163,6.739a3.7,3.7,0,0,1,.677-.231.407.407,0,0,0,.043.039.239.239,0,0,0,.034-.056l.124-.026.086-.013a3.845,3.845,0,0,1,1.019-.03,3.262,3.262,0,0,1,.347.055.126.126,0,0,1,.043.009,3.8,3.8,0,0,1,1.448.63,3.532,3.532,0,0,1,.433.364,3.836,3.836,0,0,1,.527.617,2.082,2.082,0,0,1,.128.206,3.765,3.765,0,0,1,.326.69,3.388,3.388,0,0,1,.18.767V97a3.508,3.508,0,0,1,.008.994,1.913,1.913,0,0,1-.051.313,3.722,3.722,0,0,1-.244.767v0l0,0a1.244,1.244,0,0,1-.051.116,3.914,3.914,0,0,1-.514.792l0,0a.623.623,0,0,1-.047.056,3.841,3.841,0,0,1-.694.626c-.073.051-.146.1-.223.146a3.728,3.728,0,0,1-1.024.437h0a3.711,3.711,0,0,1-1.525.09c-.051,0-.1-.013-.154-.021-.009-.1-.017-.2-.034-.291a1.12,1.12,0,0,0-.013-.12c-.008-.056-.017-.107-.026-.159a5.163,5.163,0,0,0-.176-.72c-.03-.094-.064-.188-.1-.283a5.641,5.641,0,0,0-.283-.638c-.056-.107-.111-.214-.175-.321a5.711,5.711,0,0,0-2.274-2.155,3.615,3.615,0,0,1,.167-.54,1.3,1.3,0,0,1,.056-.137v0a3.887,3.887,0,0,1,1.675-1.838C95.709,94.066,95.808,94.015,95.911,93.968Zm-8.746-4.289c.009-.056.017-.116.03-.171a4.218,4.218,0,0,1,.266-.835,4.076,4.076,0,0,1,.48-.831,4.306,4.306,0,0,1,1.915-1.465,4.183,4.183,0,0,1,1.495-.291,4.016,4.016,0,0,1,.951.09,4.251,4.251,0,0,1,2.574,1.654,4.055,4.055,0,0,1,.557,1.007v0a4.225,4.225,0,0,1,.206,2.4.093.093,0,0,1,0,.034,4.422,4.422,0,0,1-.236.767l0,0-.039.09c-.069.026-.133.051-.2.081a5.968,5.968,0,0,0-.6.3,5.729,5.729,0,0,0-2.043,2.031,1.034,1.034,0,0,1-.124.034,4.4,4.4,0,0,1-1.863.026,4.793,4.793,0,0,1-.5-.137,4.361,4.361,0,0,1-1.688-1.062A4.3,4.3,0,0,1,87.164,89.679Zm-6.772,2.1A4.065,4.065,0,0,1,85.2,88.642c.081.017.159.039.235.056a3.75,3.75,0,0,0-.1.42,6.182,6.182,0,0,0,.394,3.779A5.787,5.787,0,0,0,80.89,94.7,4.043,4.043,0,0,1,80.393,91.783Zm.347,11.409-.146-.925a5.638,5.638,0,0,0,1.234,1.152Zm5.812-5.158c-.047.06-.1.116-.141.18a5.767,5.767,0,0,0-1.161,4.323,3.806,3.806,0,0,1-.93-.077,3.9,3.9,0,0,1-3-4.6.947.947,0,0,1,.026-.1,3.646,3.646,0,0,1,.339-.9v0a4,4,0,0,1,.544-.784,3.892,3.892,0,0,1,3.688-1.208,3.842,3.842,0,0,1,1.37.579,3.885,3.885,0,0,1,.719.63,3.539,3.539,0,0,1,.394.523A5.787,5.787,0,0,0,86.552,98.033Zm6.438,6.911c-.06.034-.124.073-.189.107a3.5,3.5,0,0,1-.822.326c-.068.021-.141.039-.214.056s-.12.026-.184.034h-.008a3.6,3.6,0,0,1-.835.034,4.031,4.031,0,0,1-.5-.068A3.676,3.676,0,0,1,89,104.927a3.783,3.783,0,0,1-.972-.891,3.07,3.07,0,0,1-.188-.27,3.761,3.761,0,0,1-.317-.63,2.154,2.154,0,0,1-.081-.236,3.581,3.581,0,0,1-.167-.827c0-.06-.009-.124-.009-.184A3.691,3.691,0,0,1,89,98.607a.365.365,0,0,0,.043-.034.435.435,0,0,0,.047-.026s0,0,0,0c.043-.026.086-.047.128-.069a3.2,3.2,0,0,1,.707-.266h0a.073.073,0,0,0,0-.03c.056-.017.111-.034.171-.047a3.548,3.548,0,0,1,.771-.107c.086,0,.171,0,.257,0,.026,0,.047,0,.073,0a3.211,3.211,0,0,1,.531.068.118.118,0,0,1,.039,0,3.308,3.308,0,0,1,.552.163,3.536,3.536,0,0,1,.428.193,3.7,3.7,0,0,1,1.272,1.11,3.312,3.312,0,0,1,.351.578c.052.107.094.214.137.326a3.3,3.3,0,0,1,.184.716.924.924,0,0,1,.017.107,1.307,1.307,0,0,1,.017.184v0a.374.374,0,0,1,.008.073,3.581,3.581,0,0,1-.055.878.923.923,0,0,1-.017.107s0,.013,0,.017a3.013,3.013,0,0,1-.141.484,3.324,3.324,0,0,1-.24.531A3.765,3.765,0,0,1,92.99,104.944Zm9.86,1.152c-.017.077-.034.15-.051.223v.013a4.385,4.385,0,0,1-.63,1.358l-.026.039a4.344,4.344,0,0,1-.99,1.028l-.043.03a4.412,4.412,0,0,1-1.247.643,2.3,2.3,0,0,1-.231.069,2.889,2.889,0,0,1-.381.09,4.509,4.509,0,0,1-1.709-.026,4.457,4.457,0,0,1-1.568-.664h0c-.112-.073-.214-.154-.317-.236a4.385,4.385,0,0,1-.968-1.08c-.043-.068-.086-.137-.124-.21a3.879,3.879,0,0,1-.2-.4,4.013,4.013,0,0,1-.146-.377c.047-.03.094-.06.141-.094.154-.111.3-.227.445-.351a5.664,5.664,0,0,0,.93-1.015c.026-.034.047-.069.068-.1a2.657,2.657,0,0,0,2.112,2.755,2.678,2.678,0,0,0,1.957-.343,2.077,2.077,0,0,0,.253-.18,2.672,2.672,0,0,0-.39-4.434c.026-.008.047-.021.073-.03a5.428,5.428,0,0,0,.749-.394.033.033,0,0,1,.017-.009,5.483,5.483,0,0,0,.758-.566l.051-.051a3.106,3.106,0,0,1,.248.231,4.413,4.413,0,0,1,.754,1.007A4.47,4.47,0,0,1,102.85,106.1Z" transform="translate(-56.001 -67.516)"/><path class="b" d="M230.331,394.672l-.062-.013a5.62,5.62,0,0,0-5.9,2.479,5.665,5.665,0,0,0-.761,1.865c-.022.111-.04.214-.053.32a.4.4,0,0,0-.013.071,5.619,5.619,0,0,0,10.992,2.229c.027-.1.054-.209.076-.312a.779.779,0,0,0,.018-.1,5.492,5.492,0,0,0,.027-1.962A5.619,5.619,0,0,0,230.331,394.672Z" transform="translate(-187.329 -323.955)"/></g></g></svg>