<svg xmlns="http://www.w3.org/2000/svg" width="20.071" height="20.106" viewBox="0 0 20.071 20.106"><defs><style>.a{fill:none;stroke:#000;stroke-linecap:round;stroke-width:2px;opacity:0.12;}</style></defs><g transform="translate(-303 -370.896)"><path class="a" d="M13.24,4.44a4.3,4.3,0,0,1,3.4,3.4M13.24,1a7.741,7.741,0,0,1,6.838,6.829m-.86,6.863v2.58a1.72,1.72,0,0,1-1.875,1.72,17.021,17.021,0,0,1-7.423-2.64,16.772,16.772,0,0,1-5.161-5.161,17.021,17.021,0,0,1-2.64-7.457A1.72,1.72,0,0,1,3.83,1.86h2.58a1.72,1.72,0,0,1,1.72,1.479,11.043,11.043,0,0,0,.6,2.417,1.72,1.72,0,0,1-.387,1.815L7.254,8.663a13.761,13.761,0,0,0,5.161,5.161l1.092-1.092a1.72,1.72,0,0,1,1.815-.387,11.044,11.044,0,0,0,2.417.6,1.72,1.72,0,0,1,1.479,1.746Z" transform="translate(301.889 371)"/></g></svg>